<svg xmlns="http://www.w3.org/2000/svg" fill="none" viewBox="0 0 128 128" id="Contract">
  <path stroke="#f35525" stroke-width="4" d="M105 81V106C105 112.627 99.6274 118 93 118H35C28.3726 118 23 112.627 23 106V22C23 15.3726 28.3726 10 35 10H79.4213C81.2598 10 83.0245 10.7233 84.3342 12.0136L98.003 25.4808L103.137 31.0257C104.335 32.3196 105 34.0179 105 35.7812V60.5" class="colorStroke000000 svgStroke"></path>
  <path stroke="#f35525" stroke-width="4" d="M81 12V27C81 31.9706 85.0294 36 90 36H105" class="colorStroke000000 svgStroke"></path>
  <path stroke="#f35525" stroke-linecap="round" stroke-width="4" d="M35 59H92M35 73H81M35 87H69M35 101H66M35 45H72" class="colorStroke000000 svgStroke"></path>
  <path stroke="#f35525" stroke-width="4" d="M77.0731 90.9297C77.4888 89.0422 78.4359 87.3131 79.8025 85.9465L106.822 58.927C109.543 56.2061 113.954 56.2061 116.675 58.927V58.927C119.396 61.6479 119.396 66.0593 116.675 68.7802L89.6557 95.7997C88.2891 97.1663 86.56 98.1134 84.6726 98.5291L74.9266 100.676L77.0731 90.9297Z" class="colorStroke000000 svgStroke"></path>
</svg>
