<svg xmlns="http://www.w3.org/2000/svg" viewBox="0 0 100 100" id="contract">
  <path d="M82 28.6c0-.1 0-.2-.1-.3v-.1c0-.1-.1-.2-.1-.3v-.1c-.1-.1-.2-.2-.2-.3l-22-22c-.1-.1-.2-.2-.3-.2h-.1c-.1-.1-.2-.1-.3-.1h-.1c-.1 0-.2-.1-.3-.1H26c-4.4 0-8 3.6-8 8v74c0 4.4 3.6 8 8 8h48c4.4 0 8-3.6 8-8V28.6zM60 11.8 75.2 27H64c-2.2 0-4-1.8-4-4V11.8zM74 91H26c-2.2 0-4-1.8-4-4V13c0-2.2 1.8-4 4-4h30v14c0 4.4 3.6 8 8 8h14v56c0 2.2-1.8 4-4 4zM33.3 53.5l2.7-2.4V63c0 1.1.9 2 2 2h24c1.1 0 2-.9 2-2V51.1l2.7 2.4c.4.3.9.5 1.3.5.6 0 1.1-.2 1.5-.7.7-.8.7-2.1-.2-2.8l-18-16c-.8-.7-1.9-.7-2.7 0l-18 16c-.8.7-.9 2-.2 2.8.8.9 2.1.9 2.9.2zM50 38.7l10 8.9V61H40V47.6l10-8.9zM70 73c0 1.1-.9 2-2 2H32c-1.1 0-2-.9-2-2s.9-2 2-2h36c1.1 0 2 .9 2 2zm-6 10c0 1.1-.9 2-2 2H38c-1.1 0-2-.9-2-2s.9-2 2-2h24c1.1 0 2 .9 2 2z" fill = "rgb(255, 255, 255)"></path>
</svg>
