<svg xmlns="http://www.w3.org/2000/svg" viewBox="0 0 32 32" id="agreement">
  <path d="M24.987,7.435a.455.455,0,0,0-.012-.061.492.492,0,0,0-.12-.225v0l-7-7a.492.492,0,0,0-.229-.122.47.47,0,0,0-.058-.012A.484.484,0,0,0,17.5,0H4.5A2.5,2.5,0,0,0,2,2.5v27A2.5,2.5,0,0,0,4.5,32h18A2.5,2.5,0,0,0,25,29.5V7.5A.484.484,0,0,0,24.987,7.435ZM18,1.707,23.293,7H19.5A1.5,1.5,0,0,1,18,5.5ZM17.513,7H6.5A.5.5,0,0,1,6,6.5v-2A.5.5,0,0,1,6.5,4H17V5.5A2.476,2.476,0,0,0,17.513,7ZM24,29.5A1.5,1.5,0,0,1,22.5,31H4.5A1.5,1.5,0,0,1,3,29.5V2.5A1.5,1.5,0,0,1,4.5,1H17V3H6.5A1.5,1.5,0,0,0,5,4.5v2A1.5,1.5,0,0,0,6.5,8H24ZM12.5,13.8h2c.286,0,.5.159.5.3a.5.5,0,0,0,1,0,1.413,1.413,0,0,0-1.5-1.3H14v-.3a.5.5,0,0,0-1,0v.3h-.5A1.413,1.413,0,0,0,11,14.1v1.6A1.412,1.412,0,0,0,12.5,17h2c.286,0,.5.158.5.3v1.6c0,.142-.214.3-.5.3h-2c-.286,0-.5-.159-.5-.3a.5.5,0,0,0-1,0,1.413,1.413,0,0,0,1.5,1.3H13v.3a.5.5,0,0,0,1,0v-.3h.5A1.413,1.413,0,0,0,16,18.9V17.3A1.412,1.412,0,0,0,14.5,16h-2c-.286,0-.5-.158-.5-.3V14.1C12,13.958,12.214,13.8,12.5,13.8Zm9,14.2H5.5a.5.5,0,0,0,0,1h16a.5.5,0,0,0,0-1ZM5,25.5a.5.5,0,0,0,.5.5h16a.5.5,0,0,0,0-1H5.5A.5.5,0,0,0,5,25.5ZM13.5,9A7.5,7.5,0,1,0,21,16.5,7.508,7.508,0,0,0,13.5,9Zm0,14A6.5,6.5,0,1,1,20,16.5,6.508,6.508,0,0,1,13.5,23Z" fill="#f35525" class="color000000 svgShape"></path>
</svg>
